<?xml version="1.0" encoding="utf-8"?>
<svg viewBox="0 0 500 500" xmlns="http://www.w3.org/2000/svg">
  <path d="M 168.602 391.634 C 168.602 393.634 166.302 395.234 163.402 395.234 C 160.102 395.534 157.802 393.934 157.802 391.634 C 157.802 389.634 160.102 388.034 163.002 388.034 C 166.002 387.734 168.602 389.334 168.602 391.634 Z M 137.502 387.134 C 136.802 389.134 138.802 391.434 141.802 392.034 C 144.402 393.034 147.402 392.034 148.002 390.034 C 148.602 388.034 146.702 385.734 143.702 384.834 C 141.102 384.134 138.202 385.134 137.502 387.134 Z M 181.702 385.434 C 178.802 386.134 176.802 388.034 177.102 390.334 C 177.402 392.334 180.002 393.634 183.002 392.934 C 185.902 392.234 187.902 390.334 187.602 388.334 C 187.302 386.434 184.602 385.134 181.702 385.434 Z M 247.502 2.234 C 108.802 2.234 2.702 107.534 2.702 246.234 C 2.702 357.134 72.502 452.034 172.202 485.434 C 185.002 487.734 189.502 479.834 189.502 473.334 C 189.502 467.134 189.202 432.934 189.202 411.934 C 189.202 411.934 119.202 426.934 104.502 382.134 C 104.502 382.134 93.102 353.034 76.702 345.534 C 76.702 345.534 53.802 329.834 78.302 330.134 C 78.302 330.134 103.202 332.134 116.902 355.934 C 138.802 394.534 175.502 383.434 189.802 376.834 C 192.102 360.834 198.602 349.734 205.802 343.134 C 149.902 336.934 93.502 328.834 93.502 232.634 C 93.502 205.134 101.102 191.334 117.102 173.734 C 114.502 167.234 106.002 140.434 119.702 105.834 C 140.602 99.334 188.702 132.834 188.702 132.834 C 208.702 127.234 230.202 124.334 251.502 124.334 C 272.802 124.334 294.302 127.234 314.302 132.834 C 314.302 132.834 362.402 99.234 383.302 105.834 C 397.002 140.534 388.502 167.234 385.902 173.734 C 401.902 191.434 411.702 205.234 411.702 232.634 C 411.702 329.134 352.802 336.834 296.902 343.134 C 306.102 351.034 313.902 366.034 313.902 389.534 C 313.902 423.234 313.602 464.934 313.602 473.134 C 313.602 479.634 318.202 487.534 330.902 485.234 C 430.902 452.034 498.702 357.134 498.702 246.234 C 498.702 107.534 386.202 2.234 247.502 2.234 Z M 99.902 347.134 C 98.602 348.134 98.902 350.434 100.602 352.334 C 102.202 353.934 104.502 354.634 105.802 353.334 C 107.102 352.334 106.802 350.034 105.102 348.134 C 103.502 346.534 101.202 345.834 99.902 347.134 Z M 89.102 339.034 C 88.402 340.334 89.402 341.934 91.402 342.934 C 93.002 343.934 95.002 343.634 95.702 342.234 C 96.402 340.934 95.402 339.334 93.402 338.334 C 91.402 337.734 89.802 338.034 89.102 339.034 Z M 121.502 374.634 C 119.902 375.934 120.502 378.934 122.802 380.834 C 125.102 383.134 128.002 383.434 129.302 381.834 C 130.602 380.534 130.002 377.534 128.002 375.634 C 125.802 373.334 122.802 373.034 121.502 374.634 Z M 110.102 359.934 C 108.502 360.934 108.502 363.534 110.102 365.834 C 111.702 368.134 114.402 369.134 115.702 368.134 C 117.302 366.834 117.302 364.234 115.702 361.934 C 114.302 359.634 111.702 358.634 110.102 359.934 Z" style="fill: rgb(77, 168, 255);"/>
</svg>